<?xml version="1.0" encoding="UTF-8" standalone="no"?>
<svg viewBox="0 0 1440 1024" version="1.1" xmlns="http://www.w3.org/2000/svg" xmlns:xlink="http://www.w3.org/1999/xlink">
    <!-- Generator: Sketch 40 (33762) - http://www.bohemiancoding.com/sketch -->
    <!-- Author: Kavin Subramanyam -->
    <title>Desktop HD</title>
    <desc>Created with Sketch.</desc>
    <defs>
        <circle id="path-1" cx="36" cy="18" r="18"></circle>
        <mask id="mask-2" maskContentUnits="userSpaceOnUse" maskUnits="objectBoundingBox" x="0" y="0" width="36" height="36" fill="white">
            <use xlink:href="#path-1"></use>
        </mask>
        <circle id="path-3" cx="15" cy="15" r="15"></circle>
        <mask id="mask-4" maskContentUnits="userSpaceOnUse" maskUnits="objectBoundingBox" x="0" y="0" width="30" height="30" fill="white">
            <use xlink:href="#path-3"></use>
        </mask>
        <path d="M0.00984136642,4.2 L0,4.2 L0,22.2 L9,22.2 L9,4.2 L8.99015863,4.2 C8.83578281,1.85459045 6.88447281,0 4.5,0 C2.11552719,0 0.164217192,1.85459045 0.00984136642,4.2 Z" id="path-5"></path>
        <mask id="mask-6" maskContentUnits="userSpaceOnUse" maskUnits="objectBoundingBox" x="0" y="0" width="9" height="22.2" fill="white">
            <use xlink:href="#path-5"></use>
        </mask>
        <path d="M0.00984136642,4.2 L0,4.2 L0,22.2 L9,22.2 L9,4.2 L8.99015863,4.2 C8.83578281,1.85459045 6.88447281,0 4.5,0 C2.11552719,0 0.164217192,1.85459045 0.00984136642,4.2 Z" id="path-7"></path>
        <mask id="mask-8" maskContentUnits="userSpaceOnUse" maskUnits="objectBoundingBox" x="0" y="0" width="9" height="22.2" fill="white">
            <use xlink:href="#path-7"></use>
        </mask>
        <rect id="path-9" x="0" y="23" width="45" height="2"></rect>
        <mask id="mask-10" maskContentUnits="userSpaceOnUse" maskUnits="objectBoundingBox" x="0" y="0" width="45" height="2" fill="white">
            <use xlink:href="#path-9"></use>
        </mask>
        <path d="M34.5,27 C36.4329966,27 38,25.4329966 38,23.5 C38,21.5670034 36.4329966,20 34.5,20 C32.5670034,20 31,21.5670034 31,23.5 C31,25.4329966 32.5670034,27 34.5,27 Z" id="path-11"></path>
        <mask id="mask-12" maskContentUnits="userSpaceOnUse" maskUnits="objectBoundingBox" x="0" y="0" width="7" height="7" fill="white">
            <use xlink:href="#path-11"></use>
        </mask>
        <path d="M5.5,27 C7.43299662,27 9,25.4329966 9,23.5 C9,21.5670034 7.43299662,20 5.5,20 C3.56700338,20 2,21.5670034 2,23.5 C2,25.4329966 3.56700338,27 5.5,27 Z" id="path-13"></path>
        <mask id="mask-14" maskContentUnits="userSpaceOnUse" maskUnits="objectBoundingBox" x="0" y="0" width="7" height="7" fill="white">
            <use xlink:href="#path-13"></use>
        </mask>
        <rect id="path-15" x="0" y="0" width="120" height="80" rx="5"></rect>
        <mask id="mask-16" maskContentUnits="userSpaceOnUse" maskUnits="objectBoundingBox" x="0" y="0" width="120" height="80" fill="white">
            <use xlink:href="#path-15"></use>
        </mask>
        <polygon id="path-17" points="19.0588235 54.6275044 21.4117647 56.9422291 21.4117647 66.2011282 19.0588235 68.5158529"></polygon>
        <mask id="mask-18" maskContentUnits="userSpaceOnUse" maskUnits="objectBoundingBox" x="0" y="0" width="2.35294118" height="13.8883486" fill="white">
            <use xlink:href="#path-17"></use>
        </mask>
        <radialGradient cx="50%" cy="10.5263158%" fx="50%" fy="10.5263158%" r="58.0410344%" id="radialGradient-19">
            <stop stop-color="#FFFFFF" offset="0%"></stop>
            <stop stop-color="#87CEEB" offset="100%"></stop>
        </radialGradient>
        <path d="M20,28.702587 C23.2487338,28.702587 25.8823529,26.1117431 25.8823529,22.9157751 C25.8823529,19.7198072 23.2487338,17.1289632 20,17.1289632 C16.7512662,17.1289632 14.1176471,19.7198072 14.1176471,22.9157751 C14.1176471,26.1117431 16.7512662,28.702587 20,28.702587 Z" id="path-20"></path>
        <mask id="mask-21" maskContentUnits="userSpaceOnUse" maskUnits="objectBoundingBox" x="-1" y="-1" width="13.7647059" height="13.5736238">
            <rect x="13.1176471" y="16.1289632" width="13.7647059" height="13.5736238" fill="white"></rect>
            <use xlink:href="#path-20" fill="black"></use>
        </mask>
        <path d="M1.25581417,0 L8.79069767,0 C9.48426457,0 10.0465116,0.558617193 10.0465116,1.24770642 C10.0465116,1.93679565 9.48426457,2.49541284 8.79069767,2.49541284 L1.25581395,2.49541284 C0.562247058,2.49541284 0,1.93679565 0,1.24770642 C0,0.558617193 0.562247058,0 1.25581395,0 Z" id="path-22"></path>
        <mask id="mask-23" maskContentUnits="userSpaceOnUse" maskUnits="objectBoundingBox" x="0" y="0" width="10.0465116" height="2.49541284" fill="white">
            <use xlink:href="#path-22"></use>
        </mask>
    </defs>
    <g id="Home-Main" stroke="none" stroke-width="1" fill="none" fill-rule="evenodd">
        <g id="Desktop-HD">
            <rect id="background" fill="#87CEEB" x="0" y="0" width="1440" height="1024"></rect>
            <g id="observatory" transform="translate(467.500000, 439.000000) scale(-1, 1) translate(-467.500000, -439.000000) translate(449.000000, 416.000000)">
                <rect id="Rectangle-3" fill="#979797" transform="translate(11.818734, 10.884990) rotate(45.000000) translate(-11.818734, -10.884990) " x="-0.781266248" y="8.16845478" width="25.2" height="5.43307087"></rect>
                <ellipse id="Oval" fill="#EEEEEE" cx="19" cy="19.5590551" rx="18" ry="18.1102362"></ellipse>
                <rect id="Rectangle" fill="#EEEEEE" x="1" y="22.4566929" width="36" height="23.5433071"></rect>
                <rect id="Rectangle-2" fill="#979797" x="1" y="19.5590551" width="36" height="2.17322835"></rect>
                <rect id="Rectangle-4" fill="#979797" x="22.6" y="35.1338583" width="7.2" height="10.8661417"></rect>
            </g>
            <g id="mountains" transform="translate(-69.000000, 374.000000)">
                <polygon id="middle-mountain-copy" fill="#E2E2E2" points="707.05036 102.2 934.100719 511 480 511"></polygon>
                <polygon id="large-mountain" fill="#CECECE" points="505.18705 0 789 511 221.374101 511"></polygon>
                <polygon id="middle-mountain" fill="#CECECE" points="227.05036 102.2 454.100719 511 0 511"></polygon>
                <polygon id="small-mountain" fill="#E2E2E2" points="322.979137 183.96 505.18705 511 140.771223 511"></polygon>
                <polygon id="cliff" fill="#E2E2E2" transform="translate(505.300000, 157.867969) scale(1, -1) translate(-505.300000, -157.867969) " points="505.3 153 512.6 162.735938 498 162.735938"></polygon>
                <path d="M508.148355,144.075 L508.148355,153.3 L502,153.3 L502,144.075 C502,142.376724 503.376356,141 505.074177,141 C506.771999,141 508.148355,142.376724 508.148355,144.075 Z" id="entrance" fill="#000000"></path>
            </g>
            <rect id="level-2" fill="#C2C2C2" x="522" y="739" width="323" height="146"></rect>
            <g id="hills" transform="translate(-140.000000, 725.000000)">
                <ellipse id="hills-copy-2" fill="#4CB07A" cx="472" cy="268" rx="472" ry="268"></ellipse>
                <path d="M447,0.369483814 C455.278656,0.124181916 463.613787,0 472,0 C732.678402,0 944,119.987687 944,268 C944,416.012313 732.678402,536 472,536 C463.613787,536 455.278656,535.875818 447,535.630516 C696.056421,528.25082 894,411.250653 894,268 C894,124.749347 696.056421,7.74917971 446.99998,0.369483236 Z" id="Combined-Shape" fill="#4C9C7A"></path>
            </g>
            <text id="I’m-Kavin.-Welcome-t" font-family="AvenirNext-Regular, Avenir Next" font-size="64" font-weight="normal" fill="#FFFFFF">
                <tspan x="580.608" y="124">I’m Kavin.</tspan>
                <tspan x="391.136" y="211">Welcome to my world.</tspan>
            </text>
            <g id="windmill-farm" transform="translate(25.000000, 661.000000)" fill="#EEEEEE">
                <g id="windmill" transform="translate(0.000000, 48.333333)">
                    <rect id="base" x="8.9122714" y="88.8091985" width="15.7275378" height="7.85746812"></rect>
                    <polygon id="stand" points="16.7760403 16.5204918 22.0185529 88.8091985 11.5335277 88.8091985"></polygon>
                    <ellipse id="motor" cx="16.7760403" cy="19.1396478" rx="2.62125629" ry="2.61915604"></ellipse>
                    <polygon id="blade" transform="translate(25.607100, 22.637033) scale(1, -1) rotate(150.000000) translate(-25.607100, -22.637033) " points="28.6373671 20.8668561 34.7814965 24.4072105 16.4327025 24.4072105"></polygon>
                    <polygon id="blade" transform="translate(8.831059, 25.256189) scale(1, -1) rotate(30.000000) translate(-8.831059, -25.256189) " points="11.8613269 23.4860121 18.0054563 27.0263665 -0.343337807 27.0263665"></polygon>
                    <polygon id="blade" transform="translate(14.877878, 9.972602) scale(1, -1) rotate(270.000000) translate(-14.877878, -9.972602) " points="17.9081458 8.20242451 24.0522752 11.7427789 5.7034811 11.7427789"></polygon>
                </g>
                <g id="windmill" transform="translate(40.233236, 32.222222)">
                    <rect id="base" x="8.9122714" y="88.8091985" width="15.7275378" height="7.85746812"></rect>
                    <polygon id="stand" points="16.7760403 16.5204918 22.0185529 88.8091985 11.5335277 88.8091985"></polygon>
                    <ellipse id="motor" cx="16.7760403" cy="19.1396478" rx="2.62125629" ry="2.61915604"></ellipse>
                    <polygon id="blade" transform="translate(25.607100, 22.637033) scale(1, -1) rotate(150.000000) translate(-25.607100, -22.637033) " points="28.6373671 20.8668561 34.7814965 24.4072105 16.4327025 24.4072105"></polygon>
                    <polygon id="blade" transform="translate(8.831059, 25.256189) scale(1, -1) rotate(30.000000) translate(-8.831059, -25.256189) " points="11.8613269 23.4860121 18.0054563 27.0263665 -0.343337807 27.0263665"></polygon>
                    <polygon id="blade" transform="translate(14.877878, 9.972602) scale(1, -1) rotate(270.000000) translate(-14.877878, -9.972602) " points="17.9081458 8.20242451 24.0522752 11.7427789 5.7034811 11.7427789"></polygon>
                </g>
                <g id="windmill" transform="translate(80.466472, 24.166667)">
                    <rect id="base" x="8.9122714" y="88.8091985" width="15.7275378" height="7.85746812"></rect>
                    <polygon id="stand" points="16.7760403 16.5204918 22.0185529 88.8091985 11.5335277 88.8091985"></polygon>
                    <ellipse id="motor" cx="16.7760403" cy="19.1396478" rx="2.62125629" ry="2.61915604"></ellipse>
                    <polygon id="blade" transform="translate(25.607100, 22.637033) scale(1, -1) rotate(150.000000) translate(-25.607100, -22.637033) " points="28.6373671 20.8668561 34.7814965 24.4072105 16.4327025 24.4072105"></polygon>
                    <polygon id="blade" transform="translate(8.831059, 25.256189) scale(1, -1) rotate(30.000000) translate(-8.831059, -25.256189) " points="11.8613269 23.4860121 18.0054563 27.0263665 -0.343337807 27.0263665"></polygon>
                    <polygon id="blade" transform="translate(14.877878, 9.972602) scale(1, -1) rotate(270.000000) translate(-14.877878, -9.972602) " points="17.9081458 8.20242451 24.0522752 11.7427789 5.7034811 11.7427789"></polygon>
                </g>
                <g id="windmill" transform="translate(120.699708, 16.111111)">
                    <rect id="base" x="8.9122714" y="88.8091985" width="15.7275378" height="7.85746812"></rect>
                    <polygon id="stand" points="16.7760403 16.5204918 22.0185529 88.8091985 11.5335277 88.8091985"></polygon>
                    <ellipse id="motor" cx="16.7760403" cy="19.1396478" rx="2.62125629" ry="2.61915604"></ellipse>
                    <polygon id="blade" transform="translate(25.607100, 22.637033) scale(1, -1) rotate(150.000000) translate(-25.607100, -22.637033) " points="28.6373671 20.8668561 34.7814965 24.4072105 16.4327025 24.4072105"></polygon>
                    <polygon id="blade" transform="translate(8.831059, 25.256189) scale(1, -1) rotate(30.000000) translate(-8.831059, -25.256189) " points="11.8613269 23.4860121 18.0054563 27.0263665 -0.343337807 27.0263665"></polygon>
                    <polygon id="blade" transform="translate(14.877878, 9.972602) scale(1, -1) rotate(270.000000) translate(-14.877878, -9.972602) " points="17.9081458 8.20242451 24.0522752 11.7427789 5.7034811 11.7427789"></polygon>
                </g>
                <g id="windmill" transform="translate(160.932945, 8.055556)">
                    <rect id="base" x="8.9122714" y="88.8091985" width="15.7275378" height="7.85746812"></rect>
                    <polygon id="stand" points="16.7760403 16.5204918 22.0185529 88.8091985 11.5335277 88.8091985"></polygon>
                    <ellipse id="motor" cx="16.7760403" cy="19.1396478" rx="2.62125629" ry="2.61915604"></ellipse>
                    <polygon id="blade" transform="translate(25.607100, 22.637033) scale(1, -1) rotate(150.000000) translate(-25.607100, -22.637033) " points="28.6373671 20.8668561 34.7814965 24.4072105 16.4327025 24.4072105"></polygon>
                    <polygon id="blade" transform="translate(8.831059, 25.256189) scale(1, -1) rotate(30.000000) translate(-8.831059, -25.256189) " points="11.8613269 23.4860121 18.0054563 27.0263665 -0.343337807 27.0263665"></polygon>
                    <polygon id="blade" transform="translate(14.877878, 9.972602) scale(1, -1) rotate(270.000000) translate(-14.877878, -9.972602) " points="17.9081458 8.20242451 24.0522752 11.7427789 5.7034811 11.7427789"></polygon>
                </g>
                <g id="windmill" transform="translate(201.166181, 0.000000)">
                    <rect id="base" x="8.9122714" y="88.8091985" width="15.7275378" height="7.85746812"></rect>
                    <polygon id="stand" points="16.7760403 16.5204918 22.0185529 88.8091985 11.5335277 88.8091985"></polygon>
                    <ellipse id="motor" cx="16.7760403" cy="19.1396478" rx="2.62125629" ry="2.61915604"></ellipse>
                    <polygon id="blade" transform="translate(25.607100, 22.637033) scale(1, -1) rotate(150.000000) translate(-25.607100, -22.637033) " points="28.6373671 20.8668561 34.7814965 24.4072105 16.4327025 24.4072105"></polygon>
                    <polygon id="blade" transform="translate(8.831059, 25.256189) scale(1, -1) rotate(30.000000) translate(-8.831059, -25.256189) " points="11.8613269 23.4860121 18.0054563 27.0263665 -0.343337807 27.0263665"></polygon>
                    <polygon id="blade" transform="translate(14.877878, 9.972602) scale(1, -1) rotate(270.000000) translate(-14.877878, -9.972602) " points="17.9081458 8.20242451 24.0522752 11.7427789 5.7034811 11.7427789"></polygon>
                </g>
                <g id="windmill" transform="translate(241.399417, 0.000000)">
                    <rect id="base" x="8.9122714" y="88.8091985" width="15.7275378" height="7.85746812"></rect>
                    <polygon id="stand" points="16.7760403 16.5204918 22.0185529 88.8091985 11.5335277 88.8091985"></polygon>
                    <ellipse id="motor" cx="16.7760403" cy="19.1396478" rx="2.62125629" ry="2.61915604"></ellipse>
                    <polygon id="blade" transform="translate(25.607100, 22.637033) scale(1, -1) rotate(150.000000) translate(-25.607100, -22.637033) " points="28.6373671 20.8668561 34.7814965 24.4072105 16.4327025 24.4072105"></polygon>
                    <polygon id="blade" transform="translate(8.831059, 25.256189) scale(1, -1) rotate(30.000000) translate(-8.831059, -25.256189) " points="11.8613269 23.4860121 18.0054563 27.0263665 -0.343337807 27.0263665"></polygon>
                    <polygon id="blade" transform="translate(14.877878, 9.972602) scale(1, -1) rotate(270.000000) translate(-14.877878, -9.972602) " points="17.9081458 8.20242451 24.0522752 11.7427789 5.7034811 11.7427789"></polygon>
                </g>
            </g>
            <rect id="Rectangle-18" fill="#774D99" x="867" y="722" width="387" height="163"></rect>
            <polygon id="Rectangle-19" fill="#774D99" points="959.440315 695 1010 695 1010 741 908 741"></polygon>
            <g id="red-building" transform="translate(1217.000000, 602.000000)">
                <rect id="Rectangle-14" fill="#89B3E7" x="0" y="0" width="189" height="283.056478"></rect>
                <rect id="Rectangle-17" fill="#F66B6E" x="0" y="265.129568" width="189" height="18.8704319"></rect>
                <rect id="Rectangle-17-Copy" fill="#F66B6E" x="0" y="236.82392" width="189" height="18.8704319"></rect>
                <rect id="Rectangle-17-Copy-2" fill="#F66B6E" x="0" y="208.518272" width="189" height="18.8704319"></rect>
                <rect id="Rectangle-17-Copy-3" fill="#F66B6E" x="0" y="180.212625" width="189" height="18.8704319"></rect>
                <rect id="Rectangle-17-Copy-4" fill="#F66B6E" x="0" y="151.906977" width="189" height="18.8704319"></rect>
                <rect id="Rectangle-17-Copy-5" fill="#F66B6E" x="0" y="123.601329" width="189" height="18.8704319"></rect>
                <rect id="Rectangle-17-Copy-6" fill="#F66B6E" x="0" y="95.2956811" width="189" height="18.8704319"></rect>
                <rect id="Rectangle-17-Copy-7" fill="#F66B6E" x="0" y="66.9900332" width="189" height="18.8704319"></rect>
                <rect id="Rectangle-17-Copy-9" fill="#F66B6E" x="0" y="38.6843854" width="189" height="18.8704319"></rect>
                <rect id="Rectangle-17-Copy-10" fill="#F66B6E" x="0" y="10.3787375" width="189" height="18.8704319"></rect>
                <rect id="Rectangle-17-Copy-11" fill="#F66B6E" x="0" y="0.943521595" width="189" height="18.8704319"></rect>
                <rect id="Rectangle-17-Copy-8" fill="#F66B6E" x="0" y="0.943521595" width="18.9" height="283.056478"></rect>
                <rect id="Rectangle-17-Copy-12" fill="#F66B6E" x="28.35" y="0.943521595" width="18.9" height="283.056478"></rect>
                <rect id="Rectangle-17-Copy-13" fill="#F66B6E" x="56.7" y="0.943521595" width="18.9" height="283.056478"></rect>
                <rect id="Rectangle-17-Copy-14" fill="#F66B6E" x="85.05" y="0.943521595" width="18.9" height="283.056478"></rect>
                <rect id="Rectangle-17-Copy-15" fill="#F66B6E" x="113.4" y="0.943521595" width="18.9" height="283.056478"></rect>
                <rect id="Rectangle-17-Copy-16" fill="#F66B6E" x="141.75" y="0.943521595" width="18.9" height="283.056478"></rect>
                <rect id="Rectangle-17-Copy-17" fill="#F66B6E" x="170.1" y="0.943521595" width="18.9" height="283.056478"></rect>
            </g>
            <g id="clocktower" transform="translate(809.000000, 598.000000)">
                <g id="body">
                    <use id="Oval-2" stroke="#F8D56C" mask="url(#mask-2)" stroke-width="10" fill="#5369A8" xlink:href="#path-1"></use>
                    <rect id="Rectangle-2" fill="#F8D56C" x="0" y="18" width="36" height="270"></rect>
                    <rect id="Rectangle-2-Copy" fill="#EECB62" x="36" y="18" width="36" height="270"></rect>
                </g>
                <g id="clock" transform="translate(21.000000, 30.000000)">
                    <use id="Oval" stroke="#000000" mask="url(#mask-4)" stroke-width="4" fill="#FFFFFF" xlink:href="#path-3"></use>
                    <rect id="Rectangle" fill="#000000" x="14.4" y="5.4" width="1.2" height="10.8"></rect>
                    <rect id="Rectangle-Copy" fill="#000000" x="14.4" y="15" width="9" height="1.2"></rect>
                </g>
                <g id="window" transform="translate(21.000000, 78.000000)">
                    <use id="Combined-Shape" stroke="#FFFFFF" mask="url(#mask-6)" stroke-width="4" fill="#89B3E7" xlink:href="#path-5"></use>
                    <rect id="Rectangle-5" fill="#FFFFFF" x="0" y="17.4" width="9" height="0.6"></rect>
                    <rect id="Rectangle-5-Copy" fill="#FFFFFF" x="0" y="13.8" width="9" height="0.6"></rect>
                    <rect id="Rectangle-5-Copy-2" fill="#FFFFFF" x="0" y="10.2" width="9" height="0.6"></rect>
                    <rect id="Rectangle-5-Copy-3" fill="#FFFFFF" x="0" y="6.6" width="9" height="0.6"></rect>
                    <rect id="Rectangle-5-Copy-4" fill="#FFFFFF" x="0.6" y="3" width="7.2" height="0.6"></rect>
                    <rect id="Rectangle-6" fill="#FFFFFF" x="4.2" y="0" width="0.6" height="22.2"></rect>
                </g>
                <g id="window" transform="translate(42.000000, 78.000000)">
                    <use id="Combined-Shape" stroke="#FFFFFF" mask="url(#mask-8)" stroke-width="4" fill="#89B3E7" xlink:href="#path-7"></use>
                    <rect id="Rectangle-5" fill="#FFFFFF" x="0" y="17.4" width="9" height="0.6"></rect>
                    <rect id="Rectangle-5-Copy" fill="#FFFFFF" x="0" y="13.8" width="9" height="0.6"></rect>
                    <rect id="Rectangle-5-Copy-2" fill="#FFFFFF" x="0" y="10.2" width="9" height="0.6"></rect>
                    <rect id="Rectangle-5-Copy-3" fill="#FFFFFF" x="0" y="6.6" width="9" height="0.6"></rect>
                    <rect id="Rectangle-5-Copy-4" fill="#FFFFFF" x="0.6" y="3" width="7.2" height="0.6"></rect>
                    <rect id="Rectangle-6" fill="#FFFFFF" x="4.2" y="0" width="0.6" height="22.2"></rect>
                </g>
                <rect id="Rectangle-7" fill="#5369A8" x="6" y="24" width="6" height="258"></rect>
                <rect id="Rectangle-7-Copy" fill="#495F9E" x="60" y="24" width="6" height="258"></rect>
            </g>
            <g id="orange-building" transform="translate(891.000000, 693.000000)">
                <rect id="Rectangle-12" fill="#89B3E7" x="0" y="0" width="286.875" height="191"></rect>
                <rect id="Rectangle-16" fill="#F8946C" x="0" y="171.9" width="286.875" height="19.1"></rect>
                <rect id="Rectangle-16-Copy" fill="#F8946C" x="0" y="143.25" width="286.875" height="19.1"></rect>
                <rect id="Rectangle-16-Copy-2" fill="#F8946C" x="0" y="114.6" width="286.875" height="19.1"></rect>
                <rect id="Rectangle-16-Copy-3" fill="#F8946C" x="0" y="85.95" width="286.875" height="19.1"></rect>
                <rect id="Rectangle-16-Copy-4" fill="#F8946C" x="0" y="57.3" width="286.875" height="19.1"></rect>
                <rect id="Rectangle-16-Copy-5" fill="#F8946C" x="0" y="28.65" width="286.875" height="19.1"></rect>
                <rect id="Rectangle-16-Copy-6" fill="#F8946C" x="0" y="0" width="286.875" height="19.1"></rect>
                <rect id="Rectangle-16-Copy-7" fill="#F8946C" x="0" y="0" width="19.125" height="191"></rect>
                <rect id="Rectangle-16-Copy-8" fill="#F8946C" x="28.6875" y="0" width="19.125" height="191"></rect>
                <rect id="Rectangle-16-Copy-9" fill="#F8946C" x="57.375" y="0" width="19.125" height="191"></rect>
                <rect id="Rectangle-16-Copy-10" fill="#F8946C" x="86.0625" y="0" width="19.125" height="191"></rect>
                <rect id="Rectangle-16-Copy-11" fill="#F8946C" x="114.75" y="0" width="19.125" height="191"></rect>
                <rect id="Rectangle-16-Copy-12" fill="#F8946C" x="143.4375" y="0" width="19.125" height="191"></rect>
                <rect id="Rectangle-16-Copy-13" fill="#F8946C" x="172.125" y="0" width="19.125" height="191"></rect>
                <rect id="Rectangle-16-Copy-14" fill="#F8946C" x="200.8125" y="0" width="19.125" height="191"></rect>
                <rect id="Rectangle-16-Copy-15" fill="#F8946C" x="229.5" y="0" width="19.125" height="191"></rect>
                <rect id="Rectangle-16-Copy-16" fill="#F8946C" x="258.1875" y="0" width="19.125" height="191"></rect>
                <rect id="Rectangle-16-Copy-17" fill="#F8946C" x="286.875" y="0" width="19.125" height="191"></rect>
            </g>
            <g id="ambulance" transform="translate(755.000000, 856.000000)">
                <rect id="Rectangle" fill="#EEEEEE" x="0" y="3" width="30" height="20"></rect>
                <g id="cross" transform="translate(2.000000, 5.000000)" fill="#F66B6E">
                    <rect id="Rectangle-2" x="0" y="3" width="9" height="3"></rect>
                    <rect id="Rectangle-2-Copy" x="3" y="0" width="3" height="9"></rect>
                </g>
                <use id="Rectangle-3" stroke="#979797" mask="url(#mask-10)" stroke-width="2" fill="#D8D8D8" xlink:href="#path-9"></use>
                <g id="ambulance-front" transform="translate(30.000000, 3.000000)">
                    <rect id="Rectangle-4" fill="#EEEEEE" x="0" y="10" width="15" height="10"></rect>
                    <rect id="Rectangle-5" fill="#EEEEEE" x="0" y="0" width="10" height="10"></rect>
                    <rect id="Rectangle-5-Copy" fill="#E0FFFF" x="2" y="2" width="6" height="6"></rect>
                </g>
                <use id="Oval" stroke="#000000" mask="url(#mask-12)" stroke-width="2" fill="#EEEEEE" xlink:href="#path-11"></use>
                <use id="Oval-Copy" stroke="#000000" mask="url(#mask-14)" stroke-width="2" fill="#EEEEEE" xlink:href="#path-13"></use>
                <rect id="Rectangle-6" fill="#F66B6E" x="20" y="0" width="3" height="3"></rect>
                <rect id="Rectangle-7" fill="#F66B6E" x="0" y="17" width="45" height="1"></rect>
            </g>
            <g id="heart-container" transform="translate(666.000000, 841.000000)">
                <path d="M9.0553847,28.6666667 C11.0538908,28.6666665 14.8707694,23.0441717 14.8707694,21.1754479 C14.8707694,19.3067242 14.8707694,17.9166668 12.3784617,17.9166667 C9.88615394,17.9166666 9.0553847,21.1754476 9.0553847,21.1754476 C9.0553847,21.1754476 8.22461545,17.9166667 5.73230773,17.9166667 C3.24,17.9166667 3.24,19.3068157 3.24,21.1754478 C3.24,23.04408 6.98842481,28.6666668 9.0553847,28.6666667 Z" id="heart" fill="#F66B6E"></path>
                <g id="container">
                    <rect id="Rectangle-2" fill="#555555" x="0" y="39.4166667" width="18" height="3.58333333"></rect>
                    <rect id="Rectangle-2-Copy" fill="#555555" x="0" y="0" width="18" height="3.58333333"></rect>
                    <rect id="Rectangle" fill-opacity="0.5" fill="#E0FFFF" x="0" y="3.58333333" width="9" height="35.8333333"></rect>
                    <rect id="Rectangle-Copy" fill-opacity="0.5" fill="#D6F5F5" x="9" y="3.58333333" width="9" height="35.8333333"></rect>
                </g>
            </g>
            <rect id="level-1" fill="#CCCCCC" x="0" y="884" width="1440" height="140"></rect>
            <g id="fish-thing" transform="translate(1177.000000, 961.000000)">
                <path d="M0.695516272,28.6993458 C3.17580816,28.6993458 6.19711326,27.0436986 6.19711326,24.5696075 C6.19711326,22.0955163 10.3755721,17.5 7.89528017,17.5 C5.41498828,17.5 3.16587534,19.6455163 3.16587534,22.1196075 C3.16587534,24.5936986 -1.78477562,28.6993458 0.695516272,28.6993458 Z" id="Oval-10-Copy" fill="#F66B6E" transform="translate(4.340905, 23.099673) scale(-1, -1) translate(-4.340905, -23.099673) "></path>
                <path d="M31.9235864,28.6993458 C34.4038783,28.6993458 37.4251834,27.0436986 37.4251834,24.5696075 C37.4251834,22.0955163 41.6036422,17.5 39.1233503,17.5 C36.6430585,17.5 34.3939455,19.6455163 34.3939455,22.1196075 C34.3939455,24.5936986 29.4432946,28.6993458 31.9235864,28.6993458 Z" id="Oval-10-Copy-2" fill="#F66B6E" transform="translate(35.568975, 23.099673) scale(1, -1) translate(-35.568975, -23.099673) "></path>
                <g id="octorok-body" transform="translate(2.456140, 0.000000)">
                    <g id="octorok-face">
                        <ellipse id="Oval-7-Copy-2" fill="#F66B6E" cx="17.5438596" cy="17.5" rx="17.5438596" ry="17.5"></ellipse>
                        <path d="M21.0526316,34.6499366 C19.9189125,34.8794941 18.7454942,35 17.5438596,35 C7.85465351,35 0,27.1649831 0,17.5 C0,7.83501688 7.85465351,0 17.5438596,0 C18.7454942,0 19.9189125,0.120505908 21.0526316,0.350063404 C13.0447708,1.97150957 7.01754386,9.03364731 7.01754386,17.5 C7.01754386,25.9663527 13.0447708,33.0284904 21.0526316,34.6499366 Z" id="Combined-Shape" fill="#E26B6E"></path>
                    </g>
                    <path d="M11.2280702,17.5 C13.3333333,17.5 14.4736842,16.45 17.5438596,16.45 C20.6140351,16.45 21.754386,17.5 23.8596491,17.5 C26.9590643,17.5 29.8245614,15.4 29.8245614,12.25 C29.8245614,9.1 26.9590643,7 23.8596491,7 C21.754386,7 20.6140351,8.05 17.5438596,8.05 C14.4736842,8.05 12.3840346,7 11.2280702,7 C8.01228662,7 5.26315789,9.35050506 5.26315789,12.25 C5.26315789,15.1494949 8.01228662,17.5 11.2280702,17.5 Z" id="eye-plate" fill="#FFFFFF"></path>
                    <path d="M14.1133159,13.3837478 C14.1593425,13.2706593 14.1835041,13.1536108 14.1835041,13.0337478 C14.1835041,12.0672494 12.6125734,11.2837478 10.6747322,11.2837478 C8.73689093,11.2837478 7.16596022,12.0672494 7.16596022,13.0337478 C7.16596022,13.1536108 7.19012181,13.2706593 7.23614838,13.3837478 C7.56125036,12.5849636 8.97721783,11.9837478 10.6747322,11.9837478 C12.3722465,11.9837478 13.7882139,12.5849636 14.1133159,13.3837478 Z" id="Combined-Shape" fill="#000000" transform="translate(10.674732, 12.333748) rotate(20.000000) translate(-10.674732, -12.333748) "></path>
                    <path d="M27.7975265,13.3837478 C27.843553,13.2706593 27.8677146,13.1536108 27.8677146,13.0337478 C27.8677146,12.0672494 26.2967839,11.2837478 24.3589427,11.2837478 C22.4211015,11.2837478 20.8501708,12.0672494 20.8501708,13.0337478 C20.8501708,13.1536108 20.8743323,13.2706593 20.9203589,13.3837478 C21.2454609,12.5849636 22.6614284,11.9837478 24.3589427,11.9837478 C26.056457,11.9837478 27.4724245,12.5849636 27.7975265,13.3837478 Z" id="Combined-Shape-Copy" fill="#000000" transform="translate(24.358943, 12.333748) scale(-1, 1) rotate(20.000000) translate(-24.358943, -12.333748) "></path>
                </g>
            </g>
            <rect id="ocean" fill="#5369A8" x="100" y="984" width="1340" height="40"></rect>
            <rect id="docks" fill="#D8D8D8" x="0" y="967" width="100" height="57"></rect>
            <g id="pier" transform="translate(100.000000, 967.000000)" fill="#CD853F">
                <rect id="Rectangle-13" x="0" y="0" width="250" height="5"></rect>
                <rect id="Rectangle-15" x="10" y="5" width="3" height="12"></rect>
                <rect id="Rectangle-15-Copy" x="30" y="5" width="3" height="12"></rect>
                <rect id="Rectangle-15-Copy-2" x="50" y="5" width="3" height="12"></rect>
                <rect id="Rectangle-15-Copy-3" x="70" y="5" width="3" height="12"></rect>
                <rect id="Rectangle-15-Copy-4" x="90" y="5" width="3" height="12"></rect>
                <rect id="Rectangle-15-Copy-5" x="110" y="5" width="3" height="12"></rect>
                <rect id="Rectangle-15-Copy-6" x="130" y="5" width="3" height="12"></rect>
                <rect id="Rectangle-15-Copy-7" x="150" y="5" width="3" height="12"></rect>
                <rect id="Rectangle-15-Copy-8" x="170" y="5" width="3" height="12"></rect>
                <rect id="Rectangle-15-Copy-9" x="190" y="5" width="3" height="12"></rect>
                <rect id="Rectangle-15-Copy-10" x="210" y="5" width="3" height="12"></rect>
                <rect id="Rectangle-15-Copy-11" x="230" y="5" width="3" height="12"></rect>
            </g>
            <g id="ladder" transform="translate(44.000000, 883.000000)" stroke="#F8D56C" stroke-width="2" stroke-linecap="square">
                <path d="M1,1 L1,82.5" id="Line"></path>
                <path d="M11,1 L11,82.5" id="Line-Copy"></path>
                <path d="M1.5,81 L10.5,81" id="Line-Copy-2"></path>
                <path d="M1.5,77 L10.5,77" id="Line-Copy-3"></path>
                <path d="M1.5,73 L10.5,73" id="Line-Copy-4"></path>
                <path d="M1.5,69 L10.5,69" id="Line-Copy-5"></path>
                <path d="M1.5,65 L10.5,65" id="Line-Copy-6"></path>
                <path d="M1.5,61 L10.5,61" id="Line-Copy-7"></path>
                <path d="M1.5,57 L10.5,57" id="Line-Copy-8"></path>
                <path d="M1.5,53 L10.5,53" id="Line-Copy-9"></path>
                <path d="M1.5,49 L10.5,49" id="Line-Copy-10"></path>
                <path d="M1.5,45 L10.5,45" id="Line-Copy-11"></path>
                <path d="M1.5,41 L10.5,41" id="Line-Copy-12"></path>
                <path d="M1.5,37 L10.5,37" id="Line-Copy-13"></path>
                <path d="M1.5,33 L10.5,33" id="Line-Copy-14"></path>
                <path d="M1.5,29 L10.5,29" id="Line-Copy-15"></path>
                <path d="M1.5,25 L10.5,25" id="Line-Copy-16"></path>
                <path d="M1.5,21 L10.5,21" id="Line-Copy-17"></path>
                <path d="M1.5,17 L10.5,17" id="Line-Copy-18"></path>
                <path d="M1.5,13 L10.5,13" id="Line-Copy-19"></path>
                <path d="M1.5,9 L10.5,9" id="Line-Copy-20"></path>
                <path d="M1.5,5 L10.5,5" id="Line-Copy-21"></path>
                <path d="M1.5,1 L10.5,1" id="Line-Copy-22"></path>
            </g>
            <g id="satellite" transform="translate(1317.597980, 99.597980) rotate(-45.000000) translate(-1317.597980, -99.597980) translate(1295.097980, 66.097980)">
                <g id="body" transform="translate(0.000000, 16.369375)">
                    <path d="M4.90468174,4.91081259 L39.2374539,4.91081259 L39.2374539,16.3693753 L4.90468174,16.3693753 L4.90468174,4.91081259 Z M1.13686838e-13,9.82162518 L4.90468174,4.91081259 L4.90468174,16.3693753 L1.13686838e-13,16.3693753 L1.13686838e-13,9.82162518 Z M44.1421356,9.82162518 L39.2374539,4.91081259 L39.2374539,16.3693753 L44.1421356,16.3693753 L44.1421356,9.82162518 Z" id="Combined-Shape" fill="#F2F2F2"></path>
                    <path d="M4.90468174,16.3693753 L39.2374539,16.3693753 L39.2374539,27.827938 L4.90468174,27.827938 L4.90468174,16.3693753 Z M6.82121026e-13,22.9171254 L4.90468174,27.827938 L4.90468174,16.3693753 L6.82121026e-13,16.3693753 L6.82121026e-13,22.9171254 Z M44.1421356,22.9171254 L39.2374539,27.827938 L39.2374539,16.3693753 L44.1421356,16.3693753 L44.1421356,22.9171254 Z" id="Combined-Shape" fill="#CECECE"></path>
                    <rect id="Rectangle-3" fill="#F2F2F2" x="22.8885148" y="0" width="1.96187269" height="4.91081259"></rect>
                    <rect id="Rectangle-3-Copy" fill="#F2F2F2" x="22.8885148" y="27.827938" width="1.96187269" height="4.91081259"></rect>
                </g>
                <g id="solarpanel" transform="translate(6.539576, 0.000000)">
                    <rect id="Rectangle-4" fill="#5369A8" x="0" y="0" width="32.6978782" height="16.3693753"></rect>
                    <rect id="Rectangle-5" fill="#F2F2F2" x="0" y="0" width="1.63489391" height="16.3693753"></rect>
                    <rect id="Rectangle-5-Copy" fill="#F2F2F2" x="31.0629843" y="-2.27373675e-13" width="1.63489391" height="16.3693753"></rect>
                    <rect id="Rectangle-6" fill="#F2F2F2" x="0" y="0" width="32.6978782" height="1.63693753"></rect>
                    <rect id="Rectangle-6-Copy" fill="#F2F2F2" x="0" y="14.7324378" width="32.6978782" height="1.63693753"></rect>
                    <rect id="Rectangle-7" fill="#F2F2F2" x="6.04910747" y="0" width="0.817446956" height="16.3693753"></rect>
                    <rect id="Rectangle-7-Copy" fill="#F2F2F2" x="10.9537892" y="-6.82121026e-13" width="0.817446956" height="16.3693753"></rect>
                    <rect id="Rectangle-7-Copy-2" fill="#F2F2F2" x="15.8584709" y="0" width="0.817446956" height="16.3693753"></rect>
                    <rect id="Rectangle-7-Copy-3" fill="#F2F2F2" x="20.7631527" y="-7.95807864e-13" width="0.817446956" height="16.3693753"></rect>
                    <rect id="Rectangle-7-Copy-4" fill="#F2F2F2" x="25.6678344" y="0" width="0.817446956" height="16.3693753"></rect>
                    <rect id="Rectangle-8" fill="#F2F2F2" x="1.13686838e-13" y="5.72928135" width="32.6978782" height="0.818468765"></rect>
                    <rect id="Rectangle-8-Copy" fill="#F2F2F2" x="1.13686838e-13" y="10.3127064" width="32.6978782" height="0.818468765"></rect>
                </g>
                <g id="solarpanel-copy" transform="translate(6.539576, 49.108126)">
                    <rect id="Rectangle-4" fill="#5369A8" x="0" y="0" width="32.6978782" height="16.3693753"></rect>
                    <rect id="Rectangle-5" fill="#F2F2F2" x="0" y="0" width="1.63489391" height="16.3693753"></rect>
                    <rect id="Rectangle-5-Copy" fill="#F2F2F2" x="31.0629843" y="1.13686838e-13" width="1.63489391" height="16.3693753"></rect>
                    <rect id="Rectangle-6" fill="#F2F2F2" x="0" y="0" width="32.6978782" height="1.63693753"></rect>
                    <rect id="Rectangle-6-Copy" fill="#F2F2F2" x="0" y="14.7324378" width="32.6978782" height="1.63693753"></rect>
                    <rect id="Rectangle-7" fill="#F2F2F2" x="6.04910747" y="0" width="0.817446956" height="16.3693753"></rect>
                    <rect id="Rectangle-7-Copy" fill="#F2F2F2" x="10.9537892" y="-1.13686838e-13" width="0.817446956" height="16.3693753"></rect>
                    <rect id="Rectangle-7-Copy-2" fill="#F2F2F2" x="15.8584709" y="0" width="0.817446956" height="16.3693753"></rect>
                    <rect id="Rectangle-7-Copy-3" fill="#F2F2F2" x="20.7631527" y="0" width="0.817446956" height="16.3693753"></rect>
                    <rect id="Rectangle-7-Copy-4" fill="#F2F2F2" x="25.6678344" y="-6.82121026e-13" width="0.817446956" height="16.3693753"></rect>
                    <rect id="Rectangle-8" fill="#F2F2F2" x="1.13686838e-13" y="5.72928135" width="32.6978782" height="0.818468765"></rect>
                    <rect id="Rectangle-8-Copy" fill="#F2F2F2" x="7.95807864e-13" y="10.3127064" width="32.6978782" height="0.818468765"></rect>
                </g>
            </g>
            <path d="M219.228934,404 L216.535714,404 C216.535714,410.627417 211.265629,416 204.764648,416 L107.771066,416 C101.270086,416 96,410.627417 96,404 C96,397.372583 101.270086,392 107.771066,392 L110.464286,392 C110.464286,385.372583 115.734371,380 122.235352,380 L219.228934,380 C225.729914,380 231,385.372583 231,392 C231,398.627417 225.729914,404 219.228934,404 Z" id="large-cloud" fill="#FFFFFF"></path>
            <path d="M855.597656,321 L753.402344,321 C746.552718,321 741,315.403559 741,308.5 C741,301.596441 746.552718,296 753.402344,296 L855.597656,296 C862.447282,296 868,301.596441 868,308.5 C868,315.403559 862.447282,321 855.597656,321 Z" id="Combined-Shape" fill="#FFFFFF"></path>
            <g id="chimney" transform="translate(635.000000, 665.000000)">
                <polygon id="Rectangle-10-Copy" fill="#EEEEEE" points="13.5785953 0 48.8829431 0 62.4615385 74 0 74"></polygon>
                <polygon id="Rectangle-11" fill="#D8D8D8" points="31.1488294 0 50.1077024 0 62.58727 74 31.1488294 74"></polygon>
                <g id="atom" transform="translate(21.725753, 12.220183)">
                    <ellipse id="nucleus" fill="#000000" cx="9.47028078" cy="9.24595893" rx="1.53379482" ry="1.68108344"></ellipse>
                    <ellipse id="ring" stroke="#000000" cx="9.47028078" cy="9.24595893" rx="3.83448705" ry="8.40541721"></ellipse>
                    <ellipse id="ring" stroke="#000000" transform="translate(9.439800, 9.271282) rotate(60.000000) translate(-9.439800, -9.271282) " cx="9.43979971" cy="9.27128195" rx="3.83448705" ry="8.40541721"></ellipse>
                    <path d="M9.43979971,17.6766992 C11.5575284,17.6766992 13.2742868,13.9134657 13.2742868,9.27128195 C13.2742868,4.62909821 11.5575284,0.865864738 9.43979971,0.865864738 C7.32207098,0.865864738 5.60531266,4.62909821 5.60531266,9.27128195 C5.60531266,13.9134657 7.32207098,17.6766992 9.43979971,17.6766992 Z" id="ring" stroke="#000000" transform="translate(9.439800, 9.271282) rotate(-60.000000) translate(-9.439800, -9.271282) "></path>
                    <ellipse id="electron" fill="#000000" cx="2.87496306" cy="13.4486675" rx="0.76689741" ry="0.840541721"></ellipse>
                    <ellipse id="electron" fill="#000000" cx="9.47028078" cy="0.840541721" rx="0.76689741" ry="0.840541721"></ellipse>
                    <ellipse id="electron" fill="#000000" cx="16.1422882" cy="13.4486675" rx="0.76689741" ry="0.840541721"></ellipse>
                </g>
            </g>
            <g id="chimney" transform="translate(565.000000, 665.000000)">
                <polygon id="Rectangle-10-Copy" fill="#EEEEEE" points="13.5785953 0 48.8829431 0 62.4615385 74 0 74"></polygon>
                <polygon id="Rectangle-11" fill="#D8D8D8" points="31.1488294 0 50.1077024 0 62.58727 74 31.1488294 74"></polygon>
                <g id="atom" transform="translate(21.725753, 12.220183)">
                    <ellipse id="nucleus" fill="#000000" cx="9.47028078" cy="9.24595893" rx="1.53379482" ry="1.68108344"></ellipse>
                    <ellipse id="ring" stroke="#000000" cx="9.47028078" cy="9.24595893" rx="3.83448705" ry="8.40541721"></ellipse>
                    <ellipse id="ring" stroke="#000000" transform="translate(9.439800, 9.271282) rotate(60.000000) translate(-9.439800, -9.271282) " cx="9.43979971" cy="9.27128195" rx="3.83448705" ry="8.40541721"></ellipse>
                    <path d="M9.43979971,17.6766992 C11.5575284,17.6766992 13.2742868,13.9134657 13.2742868,9.27128195 C13.2742868,4.62909821 11.5575284,0.865864738 9.43979971,0.865864738 C7.32207098,0.865864738 5.60531266,4.62909821 5.60531266,9.27128195 C5.60531266,13.9134657 7.32207098,17.6766992 9.43979971,17.6766992 Z" id="ring" stroke="#000000" transform="translate(9.439800, 9.271282) rotate(-60.000000) translate(-9.439800, -9.271282) "></path>
                    <ellipse id="electron" fill="#000000" cx="2.87496306" cy="13.4486675" rx="0.76689741" ry="0.840541721"></ellipse>
                    <ellipse id="electron" fill="#000000" cx="9.47028078" cy="0.840541721" rx="0.76689741" ry="0.840541721"></ellipse>
                    <ellipse id="electron" fill="#000000" cx="16.1422882" cy="13.4486675" rx="0.76689741" ry="0.840541721"></ellipse>
                </g>
            </g>
            <g id="laboratory" transform="translate(720.000000, 692.000000)">
                <rect fill="#EEEEEE" x="0" y="0" width="69" height="47"></rect>
                <rect id="left-door" fill="#E0FFFF" x="30.8684211" y="39.7692308" width="3.63157895" height="7.23076923"></rect>
                <rect id="right-door" fill="#E0FFFF" x="34.5" y="39.7692308" width="3.63157895" height="7.23076923"></rect>
                <g id="atom" transform="translate(22.697368, 7.230769)">
                    <ellipse id="nucleus" fill="#000000" cx="11.7597543" cy="11.3626374" rx="1.89328419" ry="2.06593407"></ellipse>
                    <ellipse id="ring" stroke="#000000" cx="11.7597543" cy="11.3626374" rx="4.73321049" ry="10.3296703"></ellipse>
                    <ellipse id="ring" stroke="#000000" transform="translate(11.722129, 11.393758) rotate(60.000000) translate(-11.722129, -11.393758) " cx="11.7221291" cy="11.3937576" rx="4.73321049" ry="10.3296703"></ellipse>
                    <ellipse id="ring" stroke="#000000" transform="translate(11.722129, 11.393758) rotate(-60.000000) translate(-11.722129, -11.393758) " cx="11.7221291" cy="11.3937576" rx="4.73321049" ry="10.3296703"></ellipse>
                    <ellipse id="electron" fill="#000000" cx="3.61863222" cy="16.5274725" rx="0.946642097" ry="1.03296703"></ellipse>
                    <ellipse id="electron" fill="#000000" cx="11.7597543" cy="1.03296703" rx="0.946642097" ry="1.03296703"></ellipse>
                    <ellipse id="electron" fill="#000000" cx="19.9955405" cy="16.5274725" rx="0.946642097" ry="1.03296703"></ellipse>
                </g>
                <rect id="indent" fill="#D8D8D8" x="3.63157895" y="3.61538462" width="3.63157895" height="39.7692308"></rect>
                <rect id="indent" fill="#D8D8D8" x="10.8947368" y="3.61538462" width="3.63157895" height="39.7692308"></rect>
                <rect id="indent" fill="#D8D8D8" x="18.1578947" y="3.61538462" width="3.63157895" height="39.7692308"></rect>
                <rect id="indent" fill="#D8D8D8" x="61.7368421" y="3.61538462" width="3.63157895" height="39.7692308"></rect>
                <rect id="indent" fill="#D8D8D8" x="54.4736842" y="3.61538462" width="3.63157895" height="39.7692308"></rect>
                <rect id="indent" fill="#D8D8D8" x="47.2105263" y="3.61538462" width="3.63157895" height="39.7692308"></rect>
            </g>
            <g id="terminal" transform="translate(1044.000000, 615.000000)">
                <use stroke="#FFFFFF" mask="url(#mask-16)" stroke-width="4" fill="#000000" xlink:href="#path-15"></use>
                <text id="&gt;-Hello-world" font-family="AvenirNext-Regular, Avenir Next" font-size="12" font-weight="normal" fill="#FFFFFF">
                    <tspan x="5.438" y="17">&gt; Hello world </tspan>
                </text>
                <g id="sun" transform="translate(41.000000, 26.000000)">
                    <circle id="Oval-5" stroke="#FFFFFF" stroke-width="2" cx="20.5" cy="19.5" r="12.5"></circle>
                    <rect id="Rectangle-21" fill="#FFFFFF" transform="translate(20.000000, 4.000000) scale(-1, 1) translate(-20.000000, -4.000000) " x="19" y="0" width="2" height="8"></rect>
                    <rect id="Rectangle-21-Copy-7" fill="#FFFFFF" transform="translate(20.000000, 35.000000) scale(-1, 1) translate(-20.000000, -35.000000) " x="19" y="31" width="2" height="8"></rect>
                    <rect id="Rectangle-21-Copy" fill="#FFFFFF" transform="translate(32.242641, 8.242641) scale(-1, 1) rotate(-45.000000) translate(-32.242641, -8.242641) " x="31.2426407" y="4.24264069" width="2" height="8"></rect>
                    <rect id="Rectangle-21-Copy-6" fill="#FFFFFF" transform="translate(31.242641, 31.242641) scale(-1, -1) rotate(-45.000000) translate(-31.242641, -31.242641) " x="30.2426407" y="27.2426407" width="2" height="8"></rect>
                    <rect id="Rectangle-21-Copy-3" fill="#FFFFFF" transform="translate(36.000000, 20.000000) scale(-1, 1) rotate(-90.000000) translate(-36.000000, -20.000000) " x="35" y="16" width="2" height="8"></rect>
                    <rect id="Rectangle-21-Copy-4" fill="#FFFFFF" transform="translate(4.000000, 20.000000) scale(-1, 1) rotate(-90.000000) translate(-4.000000, -20.000000) " x="3" y="16" width="2" height="8"></rect>
                    <rect id="Rectangle-21-Copy-2" fill="#FFFFFF" transform="translate(8.242641, 8.242641) scale(-1, 1) rotate(45.000000) translate(-8.242641, -8.242641) " x="7.24264069" y="4.24264069" width="2" height="8"></rect>
                    <rect id="Rectangle-21-Copy-5" fill="#FFFFFF" transform="translate(8.242641, 30.242641) scale(-1, -1) rotate(45.000000) translate(-8.242641, -30.242641) " x="7.24264069" y="26.2426407" width="2" height="8"></rect>
                </g>
            </g>
            <g id="pipe" transform="translate(156.000000, 359.000000)">
                <rect id="Rectangle-2" fill="#4CB07A" x="2.66666667" y="4.84615385" width="10.6666667" height="16.1538462"></rect>
                <rect id="Rectangle" fill="#4CBA7A" x="0" y="0" width="16" height="5.38461538"></rect>
            </g>
            <g id="rocket" transform="translate(164.000000, 109.000000)">
                <path d="M0.360912069,48.8406925 C1.17296422,44.2112429 6.58449315,44.2112429 6.58449315,44.2112429 L8.23529412,60.4143163 L0.360912069,67.3584906 C0.360912069,67.3584906 -0.451140086,53.470142 0.360912069,48.8406925 Z" id="leftfin" fill="#F66B6E"></path>
                <path d="M32.125618,48.8406925 C32.9376701,44.2112429 38.349199,44.2112429 38.349199,44.2112429 L40,60.4143163 L32.125618,67.3584906 C32.125618,67.3584906 31.3135658,53.470142 32.125618,48.8406925 Z" id="rightfin" fill="#F66B6E" transform="translate(35.882353, 55.784867) scale(-1, 1) translate(-35.882353, -55.784867) "></path>
                <g id="body" transform="translate(20.152761, 36.798958) rotate(-90.000000) translate(-20.152761, -36.798958) translate(-3.847239, 22.298958)">
                    <path d="M-3.19744231e-14,2.78309485 C-3.19744231e-14,2.78309485 10.3529412,1.32338585e-13 23.5294118,1.32338585e-13 C36.7058824,1.32338585e-13 47.0588235,2.78309485 47.0588235,2.78309485 L47.0588235,14.3567187 L-3.19744231e-14,14.3567187 L-3.19744231e-14,2.78309485 Z" id="Rectangle" fill="#F2F2F2"></path>
                    <path d="M1.0658141e-14,17.1343884 C1.0658141e-14,17.1343884 10.3529412,14.3512935 23.5294118,14.3512935 C36.7058824,14.3512935 47.0588235,17.1343884 47.0588235,17.1343884 L47.0588235,28.7080122 L1.0658141e-14,28.7080122 L1.0658141e-14,17.1343884 Z" id="Rectangle-Copy" fill="#CECECE" transform="translate(23.529412, 21.529653) scale(1, -1) translate(-23.529412, -21.529653) "></path>
                </g>
                <use id="thruster" stroke="#979797" mask="url(#mask-18)" stroke-width="2" fill="#979797" transform="translate(20.235294, 61.571679) rotate(-90.000000) translate(-20.235294, -61.571679) " xlink:href="#path-17"></use>
                <polygon id="stream" fill="url(#radialGradient-19)" points="13.3422362 62.691256 27.0505072 62.691256 27.0505072 94.799643 13.3422362 95.2701325"></polygon>
                <g id="cone" transform="translate(8.235294, 0.000000)">
                    <polygon id="Triangle" fill="#F66B6E" points="11.7647059 0 11.7647059 14.119821 0 14.119821"></polygon>
                    <polygon id="Triangle-Copy" fill="#E26B6E" transform="translate(17.647059, 7.059911) scale(-1, 1) translate(-17.647059, -7.059911) " points="23.5294118 0 23.5294118 14.119821 11.7647059 14.119821"></polygon>
                </g>
                <g id="midfin" transform="translate(18.823529, 44.211243)">
                    <path d="M1.17647059,23.1472476 L1.17647059,2.31472476 L0,2.31472476 L1.17647059,23.1472476 Z M1.17647059,2.31472476 C1.17647059,2.31472476 1.17647059,1.15736238 1.17647059,0 C0.526723824,0 0,1.03633758 0,2.31472476 C0.253828301,2.31472476 1.17647059,2.31472476 1.17647059,2.31472476 Z" id="Combined-Shape" fill="#F66B6E"></path>
                    <path d="M1.17647059,23.1472476 L1.17647059,2.31472476 L2.35294118,2.31472476 L1.17647059,23.1472476 Z M1.17647059,2.31472476 C1.17647059,2.31472476 1.17647059,1.15736238 1.17647059,0 C1.82621735,0 2.35294118,1.03633758 2.35294118,2.31472476 C2.09911288,2.31472476 1.17647059,2.31472476 1.17647059,2.31472476 Z" id="Combined-Shape" fill="#E26B6E"></path>
                </g>
                <g id="window">
                    <use fill="#89B3D3" fill-rule="evenodd" xlink:href="#path-20"></use>
                    <use stroke="#979797" mask="url(#mask-21)" stroke-width="2" xlink:href="#path-20"></use>
                </g>
            </g>
            <g id="drone" transform="translate(1053.000000, 428.000000)">
                <g id="propellor">
                    <rect id="Rectangle-2" fill="#CCCCCC" x="14.2791539" y="5.23577236" width="7.51534414" height="3.7398374"></rect>
                    <ellipse id="Oval" fill="#D8D8D8" cx="18.0368259" cy="1.49593496" rx="1.50306883" ry="1.49593496"></ellipse>
                    <polygon id="blade" fill="#FFFFFF" transform="translate(8.454762, 2.430894) scale(1, -1) translate(-8.454762, -2.430894) " points="12.2124342 1.49593496 16.9095243 3.36585366 0 3.36585366"></polygon>
                    <polygon id="blade" fill="#FFFFFF" transform="translate(27.618890, 2.430894) scale(-1, -1) translate(-27.618890, -2.430894) " points="31.3765618 1.49593496 36.0736518 3.36585366 19.1641275 3.36585366"></polygon>
                    <rect id="Rectangle-3" fill="#FFFFFF" x="17.0974079" y="3.36585366" width="1.87883603" height="1.8699187"></rect>
                    <rect id="Rectangle-4" fill="#CCCCCC" x="16.5337571" y="1.49593496" width="3.00613765" height="1.8699187"></rect>
                </g>
                <g id="propellor" transform="translate(82.668785, 0.000000)">
                    <rect id="Rectangle-2" fill="#CCCCCC" x="14.2791539" y="5.23577236" width="7.51534414" height="3.7398374"></rect>
                    <ellipse id="Oval" fill="#D8D8D8" cx="18.0368259" cy="1.49593496" rx="1.50306883" ry="1.49593496"></ellipse>
                    <polygon id="blade" fill="#FFFFFF" transform="translate(8.454762, 2.430894) scale(1, -1) translate(-8.454762, -2.430894) " points="12.2124342 1.49593496 16.9095243 3.36585366 0 3.36585366"></polygon>
                    <polygon id="blade" fill="#FFFFFF" transform="translate(27.618890, 2.430894) scale(-1, -1) translate(-27.618890, -2.430894) " points="31.3765618 1.49593496 36.0736518 3.36585366 19.1641275 3.36585366"></polygon>
                    <rect id="Rectangle-3" fill="#FFFFFF" x="17.0974079" y="3.36585366" width="1.87883603" height="1.8699187"></rect>
                    <rect id="Rectangle-4" fill="#CCCCCC" x="16.5337571" y="1.49593496" width="3.00613765" height="1.8699187"></rect>
                </g>
                <path d="M14.4943766,8.73821773 C14.4943766,8.73821773 23.0649018,8.73821773 31.4846321,8.73821773 C38.6694885,8.01578987 42.0300609,2.99186992 59.3985578,2.99186992 L59.3985572,22.8796248 C59.3985572,22.8796248 53.2124799,23.2287533 49.2049457,19.8082329 C44.9246629,16.1549154 42.640311,11.828855 37.1211396,11.828855 L14.4943767,11.828855 C14.4943767,11.828855 12.7770984,11.828855 12.7760853,10.1536627 C12.7752294,8.73821773 14.4943766,8.73821773 14.4943766,8.73821773 Z M104.302739,8.73821773 C104.302739,8.73821773 95.7322138,8.73821773 87.3124835,8.73821773 C80.1276271,8.01578987 76.7670547,2.99186992 59.3985578,2.99186992 L59.3985584,22.8796248 C59.3985584,22.8796248 65.5846357,23.2287533 69.5921699,19.8082329 C73.8724527,16.1549154 76.1568046,11.828855 81.675976,11.828855 L104.302739,11.828855 C104.302739,11.828855 106.020017,11.828855 106.02103,10.1536627 C106.021886,8.73821773 104.302739,8.73821773 104.302739,8.73821773 Z" id="body" fill="#FFFFFF"></path>
                <polygon id="decoration" fill="#F66B6E" points="57.4923826 14.5853659 61.2500547 14.5853659 62.1894727 20.195122 56.5529646 20.195122"></polygon>
                <rect id="decoration" fill="#CCCCCC" x="56.5529646" y="7.10569106" width="5.6365081" height="1.8699187"></rect>
            </g>
            <g id="sewer-grill" transform="translate(1261.000000, 934.000000)">
                <circle id="Oval-6" stroke="#979797" stroke-width="2" fill="#AAAAAA" cx="10" cy="10" r="10"></circle>
                <rect id="Rectangle-20" fill="#979797" x="9.23076923" y="0" width="1.53846154" height="19.2307692"></rect>
                <rect id="Rectangle-20-Copy" fill="#979797" x="3.07692308" y="2.30769231" width="1.53846154" height="15.3846154"></rect>
                <rect id="Rectangle-20-Copy-2" fill="#979797" x="15.3846154" y="2.30769231" width="1.53846154" height="15.3846154"></rect>
            </g>
            <g id="robot" transform="translate(240.000000, 933.000000)">
                <g id="face" transform="translate(8.476744, 4.990826)">
                    <rect id="Rectangle-2" fill="#333333" x="0" y="0" width="10.0465116" height="8.73394495"></rect>
                    <g id="eyePlate" transform="translate(0.000000, 3.119266)">
                        <use id="Combined-Shape" stroke="#F8946C" mask="url(#mask-23)" stroke-width="10" fill="#F8D56C" xlink:href="#path-22"></use>
                        <ellipse id="leftEye" fill="#FFFFFF" cx="1.88372093" cy="1.24770642" rx="0.627906977" ry="0.623853211"></ellipse>
                        <ellipse id="rightEye" fill="#FFFFFF" cx="8.1627907" cy="1.24770642" rx="0.627906977" ry="0.623853211"></ellipse>
                    </g>
                </g>
                <g id="antenna" transform="translate(13.186047, 0.000000)">
                    <polygon id="Triangle" fill="#333333" points="0.313953488 0 0.627906977 4.99082569 0 4.99082569"></polygon>
                    <ellipse id="Oval-2" fill="#F66B6E" cx="0.313953488" cy="0.311926606" rx="0.313953488" ry="0.311926606"></ellipse>
                </g>
                <rect id="neck" fill="#F8D56C" x="12.244186" y="13.7247706" width="2.51162791" height="1.24770642"></rect>
                <rect id="Rectangle-4" fill="#333333" x="7.22093023" y="14.9724771" width="12.5581395" height="10.9174312"></rect>
                <ellipse id="Oval-3" stroke="#555555" fill="#89B3E7" cx="13.5" cy="20.4623853" rx="1.88372093" ry="1.87155963"></ellipse>
                <rect id="Rectangle-3" fill="#F8D56C" x="8.47674419" y="25.8899083" width="1.88372093" height="6.23853211"></rect>
                <rect id="Rectangle-3-Copy" fill="#F8D56C" x="16.6395349" y="25.8899083" width="1.88372093" height="6.23853211"></rect>
                <path d="M16.6395349,32.1284404 L18.5232558,32.1284404 L18.5232558,34 L16.6395349,34 L16.6395349,32.1284404 Z M20.4069767,34 C20.4069767,32.9663662 19.5636062,32.1284404 18.5232558,32.1284404 C18.5232558,32.7950153 18.5232558,34 18.5232558,34 L20.4069767,34 Z" id="rightShoe" fill="#F66B6E"></path>
                <path d="M6.59302326,32.1284404 L8.47674419,32.1284404 L8.47674419,34 L6.59302326,34 L6.59302326,32.1284404 Z M10.3604651,34 C10.3604651,32.9663662 9.51709453,32.1284404 8.47674419,32.1284404 C8.47674418,32.7950153 8.47674419,34 8.47674419,34 L10.3604651,34 Z" id="leftShoe" fill="#F66B6E" transform="translate(8.476744, 33.064220) scale(-1, 1) translate(-8.476744, -33.064220) "></path>
                <path d="M4.20697674,18.1541284 C3.83003171,17.8757572 3.2284929,16.8440367 0.627906978,16.8440367 C0.627906989,15.3536268 0.627906977,15.8645066 0.627906977,14.9724771 C3.86709576,14.9724771 4.52456217,15.8944447 5.5255814,16.8440367 C6.45955126,17.7264005 7.22093023,18.4894385 7.22093023,21.5229358 C7.22093023,22.7784023 6.9711294,22.6698301 6.29183946,22.6698301 C5.61254952,22.6698301 5.3372093,22.7679273 5.3372093,21.5229358 C5.3372093,19.4858068 4.84499275,18.9200959 4.20697674,18.1541284 Z" id="Rectangle-6-Copy" fill="#F8D56C" transform="translate(3.924419, 18.822334) scale(-1, 1) translate(-3.924419, -18.822334) "></path>
                <path d="M23.3581395,18.1541284 C22.9811945,17.8757572 22.3796557,16.8440367 19.7790698,16.8440367 C19.7790698,15.3536268 19.7790698,15.8645066 19.7790698,14.9724771 C23.0182586,14.9724771 23.675725,15.8944447 24.6767442,16.8440367 C25.6107141,17.7264005 26.372093,18.4894385 26.372093,21.5229358 C26.372093,22.7784023 26.1222922,22.6698301 25.4430022,22.6698301 C24.7637123,22.6698301 24.4883721,22.7706422 24.4883721,21.5229358 C24.4883721,19.4858068 23.9961555,18.9200959 23.3581395,18.1541284 Z" id="Rectangle-6-Copy-2" fill="#F8D56C"></path>
                <polygon id="claw" fill="#F66B6E" points="24.4883721 22.146789 26.372093 22.146789 27 23.3944954 26.372093 23.3944954 26.0581395 22.7706422 24.8023256 22.7706422 24.4883721 23.3944954 23.8604651 23.3944954"></polygon>
                <polygon id="claw-copy" fill="#F66B6E" points="0.627906977 22.146789 2.51162791 22.146789 3.13953488 23.3944954 2.51162791 23.3944954 2.19767442 22.7706422 0.941860465 22.7706422 0.627906977 23.3944954 0 23.3944954"></polygon>
            </g>
        </g>
    </g>
</svg>