<?xml version="1.0" encoding="UTF-8"?>
<svg width="180px" height="180px" viewBox="0 0 180 180" version="1.1" xmlns="http://www.w3.org/2000/svg" xmlns:xlink="http://www.w3.org/1999/xlink">
    <!-- Generator: Sketch 40.3 (33839) - http://www.bohemiancoding.com/sketch -->
    <title>Website Logo</title>
    <desc>Created with Sketch.</desc>
    <defs></defs>
    <g id="Page-1" stroke="none" stroke-width="1" fill="none" fill-rule="evenodd">
        <g id="Artboard-2" transform="translate(-388.000000, -278.000000)">
            <g id="Website-Logo" transform="translate(388.000000, 278.000000)">
                <rect id="background" fill="#FFFFFF" x="0" y="0" width="180" height="180"></rect>
                <path d="M80,60 L100,60 L100,80 L80,80 L80,60 Z M100,60 L120,60 L120,80 L100,80 L100,60 Z M100,80 L120,80 L120,100 L100,100 L100,80 Z" id="Combined-Shape" fill="#F67174"></path>
                <path d="M60,80 L80,80 L80,100 L60,100 L60,80 Z M80,80 L100,80 L100,100 L80,100 L80,80 Z M80,100 L100,100 L100,120 L80,120 L80,100 Z" id="Combined-Shape" fill="#5369A8" transform="translate(80.000000, 100.000000) rotate(180.000000) translate(-80.000000, -100.000000) "></path>
                <path d="M80,40 L100,40 L100,60 L80,60 L80,40 Z M100,40 L120,40 L120,60 L100,60 L100,40 Z" id="Combined-Shape" fill="#000000"></path>
                <path d="M60,120 L80,120 L80,140 L60,140 L60,120 Z M80,120 L100,120 L100,140 L80,140 L80,120 Z" id="Combined-Shape" fill="#000000"></path>
                <path d="M40,80 L60,80 L60,100 L40,100 L40,80 Z M40,100 L60,100 L60,120 L40,120 L40,100 Z" id="Combined-Shape" fill="#000000"></path>
                <path d="M120,60 L140,60 L140,80 L120,80 L120,60 Z M120,80 L140,80 L140,100 L120,100 L120,80 Z" id="Combined-Shape" fill="#000000"></path>
                <rect id="Rectangle-7" fill="#000000" x="100" y="100" width="20" height="20"></rect>
                <rect id="Rectangle-7" fill="#000000" x="80" y="80" width="20" height="20"></rect>
                <rect id="Rectangle-7" fill="#000000" x="60" y="60" width="20" height="20"></rect>
            </g>
        </g>
    </g>
</svg>