<?xml version="1.0" encoding="UTF-8" standalone="no"?>
<svg width="200px" height="200px" viewBox="0 0 200 200" version="1.1" xmlns="http://www.w3.org/2000/svg" xmlns:xlink="http://www.w3.org/1999/xlink">
    <!-- Generator: Sketch 40 (33762) - http://www.bohemiancoding.com/sketch -->
    <title>Artboard</title>
    <desc>Created with Sketch.</desc>
    <defs></defs>
    <g id="Page-1" stroke="none" stroke-width="1" fill="none" fill-rule="evenodd">
        <g id="Artboard" stroke="#3EB2C7" fill="#3EB2C7">
            <path d="M88.5346027,138 L168,138 C173.522847,138 178,133.522847 178,128 C178,122.477153 173.522847,118 168,118 L88.521059,118 C91.7659752,99.794104 101.778945,84 93.763039,84 C84.3024874,84 23,120.3 23,128 C23,135.7 84.0739858,172 93.763039,172 C101.972554,172 91.8251042,156.205896 88.5346027,138 L88.5346027,138 Z" id="Combined-Shape"></path>
            <path d="M88.5346027,82 L168,82 C173.522847,82 178,77.5228475 178,72 C178,66.4771525 173.522847,62 168,62 L88.521059,62 C91.7659752,43.794104 101.778945,28 93.763039,28 C84.3024874,28 23,64.3 23,72 C23,79.7 84.0739858,116 93.763039,116 C101.972554,116 91.8251042,100.205896 88.5346027,82 L88.5346027,82 Z" id="Combined-Shape-Copy" transform="translate(100.500000, 72.000000) scale(-1, 1) translate(-100.500000, -72.000000) "></path>
        </g>
    </g>
</svg>