<?xml version="1.0" encoding="UTF-8" standalone="no"?>
<svg width="165px" height="165px" viewBox="0 0 165 165" version="1.1" xmlns="http://www.w3.org/2000/svg" xmlns:xlink="http://www.w3.org/1999/xlink">
    <!-- Generator: Sketch 40.1 (33804) - http://www.bohemiancoding.com/sketch -->
    <title>logo</title>
    <desc>Created with Sketch.</desc>
    <defs></defs>
    <g id="Page-1" stroke="none" stroke-width="1" fill="none" fill-rule="evenodd">
        <g id="Artboard" transform="translate(-203.000000, -147.000000)">
            <g id="logo" transform="translate(203.000000, 147.000000)">
                <circle id="Oval" fill="#FF3C38" cx="83" cy="160" r="5"></circle>
                <circle id="Oval" fill="#FF3C38" transform="translate(44.250000, 149.616969) rotate(30.000000) translate(-44.250000, -149.616969) " cx="44.25" cy="149.616969" r="5"></circle>
                <circle id="Oval" fill="#FF3C38" transform="translate(15.883031, 121.250000) rotate(60.000000) translate(-15.883031, -121.250000) " cx="15.8830312" cy="121.25" r="5"></circle>
                <circle id="Oval" fill="#FF3C38" transform="translate(5.500000, 82.500000) rotate(90.000000) translate(-5.500000, -82.500000) " cx="5.5" cy="82.5" r="5"></circle>
                <circle id="Oval" fill="#FF3C38" transform="translate(15.883031, 43.750000) rotate(120.000000) translate(-15.883031, -43.750000) " cx="15.8830312" cy="43.75" r="5"></circle>
                <circle id="Oval" fill="#FF3C38" transform="translate(44.250000, 15.383031) rotate(150.000000) translate(-44.250000, -15.383031) " cx="44.25" cy="15.3830312" r="5"></circle>
                <circle id="Oval" fill="#FF3C38" transform="translate(83.000000, 5.000000) rotate(180.000000) translate(-83.000000, -5.000000) " cx="83" cy="5" r="5"></circle>
                <circle id="Oval" fill="#FF3C38" transform="translate(121.750000, 149.616969) rotate(-30.000000) translate(-121.750000, -149.616969) " cx="121.75" cy="149.616969" r="5"></circle>
                <circle id="Oval" fill="#FF3C38" transform="translate(150.116969, 121.250000) rotate(-60.000000) translate(-150.116969, -121.250000) " cx="150.116969" cy="121.25" r="5"></circle>
                <path d="M108.109927,65.3480762 C108.109927,65.3480762 109.609927,62.3480762 111.109927,62.3480762 C112.609927,62.3480762 114.109927,65.3480762 114.109927,65.3480762 L113.109927,132.348076 C113.109927,132.348076 112.109927,135.348076 111.109927,135.348076 C110.109927,135.348076 109.109927,132.348076 109.109927,132.348076 L108.109927,65.3480762 Z" id="Rectangle" fill="#383F51" transform="translate(111.109927, 98.848076) rotate(-60.000000) translate(-111.109927, -98.848076) "></path>
            </g>
        </g>
    </g>
</svg>