<?xml version="1.0" encoding="UTF-8"?>
<svg width="180px" height="180px" viewBox="0 0 180 180" version="1.1" xmlns="http://www.w3.org/2000/svg" xmlns:xlink="http://www.w3.org/1999/xlink">
    <!-- Generator: Sketch 40.3 (33839) - http://www.bohemiancoding.com/sketch -->
    <title>logo</title>
    <desc>Created with Sketch.</desc>
    <defs></defs>
    <g id="Page-1" stroke="none" stroke-width="1" fill="none" fill-rule="evenodd">
        <g id="Artboard" transform="translate(-106.000000, -72.000000)">
            <g id="logo" transform="translate(106.000000, 72.000000)">
                <rect id="Rectangle-2" fill="#FFFFFF" x="0" y="0" width="180" height="180"></rect>
                <ellipse id="Oval" fill="#FF3C38" cx="93.1528662" cy="142.657321" rx="3.50318471" ry="3.42679128"></ellipse>
                <ellipse id="Oval" fill="#FF3C38" transform="translate(66.003185, 135.541225) rotate(30.000000) translate(-66.003185, -135.541225) " cx="66.0031847" cy="135.541225" rx="3.50318471" ry="3.42679128"></ellipse>
                <ellipse id="Oval" fill="#FF3C38" transform="translate(46.128238, 116.099688) rotate(60.000000) translate(-46.128238, -116.099688) " cx="46.1282384" cy="116.099688" rx="3.50318471" ry="3.42679128"></ellipse>
                <ellipse id="Oval" fill="#FF3C38" transform="translate(38.853503, 89.542056) rotate(90.000000) translate(-38.853503, -89.542056) " cx="38.8535032" cy="89.5420561" rx="3.50318471" ry="3.42679128"></ellipse>
                <ellipse id="Oval" fill="#FF3C38" transform="translate(46.128238, 62.984424) rotate(120.000000) translate(-46.128238, -62.984424) " cx="46.1282384" cy="62.9844237" rx="3.50318471" ry="3.42679128"></ellipse>
                <ellipse id="Oval" fill="#FF3C38" transform="translate(66.003185, 43.542887) rotate(150.000000) translate(-66.003185, -43.542887) " cx="66.0031847" cy="43.5428874" rx="3.50318471" ry="3.42679128"></ellipse>
                <ellipse id="Oval" fill="#FF3C38" transform="translate(93.152866, 36.426791) rotate(180.000000) translate(-93.152866, -36.426791) " cx="93.1528662" cy="36.4267913" rx="3.50318471" ry="3.42679128"></ellipse>
                <ellipse id="Oval" fill="#FF3C38" transform="translate(120.302548, 135.541225) rotate(-30.000000) translate(-120.302548, -135.541225) " cx="120.302548" cy="135.541225" rx="3.50318471" ry="3.42679128"></ellipse>
                <ellipse id="Oval" fill="#FF3C38" transform="translate(140.177494, 116.099688) rotate(-60.000000) translate(-140.177494, -116.099688) " cx="140.177494" cy="116.099688" rx="3.50318471" ry="3.42679128"></ellipse>
                <path d="M110.745809,77.7868435 C110.745809,77.7868435 111.796764,75.7307687 112.84772,75.7307687 C113.898675,75.7307687 114.949631,77.7868435 114.949631,77.7868435 L114.248994,123.705847 C114.248994,123.705847 113.548357,125.761921 112.84772,125.761921 C112.147083,125.761921 111.446446,123.705847 111.446446,123.705847 L110.745809,77.7868435 Z" id="Rectangle" fill="#383F51" transform="translate(112.847720, 100.746345) rotate(-60.000000) translate(-112.847720, -100.746345) "></path>
            </g>
        </g>
    </g>
</svg>