<?xml version="1.0" encoding="UTF-8" standalone="no"?>
<svg viewBox="0 0 174 200" version="1.1" xmlns="http://www.w3.org/2000/svg" xmlns:xlink="http://www.w3.org/1999/xlink">
    <!-- Generator: Sketch 39.1 (31720) - http://www.bohemiancoding.com/sketch -->
    <!-- Author: Kavin Subramanyam -->
    <title>backend-skill</title>
    <desc>Created with Sketch.</desc>
    <defs></defs>
    <g id="Page-1" stroke="none" stroke-width="1" fill="none" fill-rule="evenodd">
        <g id="Artboard" transform="translate(-52.000000, -286.000000)">
            <g id="backend-skill" transform="translate(54.000000, 288.000000)">
                <polygon id="skillHexagon" fill="#FFFFFF" points="84.8704896 0 169.740979 49 169.740979 147 84.8704896 196 -5.9507364e-14 147 -1.13686838e-13 49"></polygon>
                <g id="gears" transform="translate(40.000000, 53.000000)">
                    <circle id="Oval-3" fill="#333333" cx="45" cy="45" r="36"></circle>
                    <circle id="Oval-4" fill="#D8D8D8" cx="45" cy="45" r="9"></circle>
                    <rect id="Rectangle-8" fill="#333333" x="0" y="36" width="18" height="18"></rect>
                    <rect id="Rectangle-8-Copy-2" fill="#333333" x="36" y="0" width="18" height="18"></rect>
                    <rect id="Rectangle-8-Copy-3" fill="#333333" x="36" y="72" width="18" height="18"></rect>
                    <rect id="Rectangle-8-Copy-4" fill="#333333" transform="translate(19.800000, 70.200000) rotate(45.000000) translate(-19.800000, -70.200000) " x="10.8" y="61.2" width="18" height="18"></rect>
                    <rect id="Rectangle-8-Copy-5" fill="#333333" transform="translate(71.100000, 70.200000) rotate(45.000000) translate(-71.100000, -70.200000) " x="62.1" y="61.2" width="18" height="18"></rect>
                    <rect id="Rectangle-8-Copy-6" fill="#333333" transform="translate(72.127922, 18.900000) rotate(45.000000) translate(-72.127922, -18.900000) " x="63.1279221" y="9.9" width="18" height="18"></rect>
                    <rect id="Rectangle-8-Copy-7" fill="#333333" transform="translate(19.800000, 18.900000) rotate(45.000000) translate(-19.800000, -18.900000) " x="10.8" y="9.9" width="18" height="18"></rect>
                    <rect id="Rectangle-8-Copy" fill="#333333" x="72" y="36" width="18" height="18"></rect>
                </g>
            </g>
        </g>
    </g>
</svg>