<?xml version="1.0" encoding="UTF-8" standalone="no"?>
<svg width="72px" height="72px" viewBox="0 0 72 72" version="1.1" xmlns="http://www.w3.org/2000/svg" xmlns:xlink="http://www.w3.org/1999/xlink">
    <!-- Generator: Sketch 40 (33762) - http://www.bohemiancoding.com/sketch -->
    <!-- Author: Kavin Subramanyam -->
    <title>github</title>
    <desc>Created with Sketch.</desc>
    <defs></defs>
    <g id="Page-1" stroke="none" stroke-width="1" fill="none" fill-rule="evenodd">
        <g id="Artboard" transform="translate(-98.000000, -196.000000)">
            <g id="github" transform="translate(98.000000, 196.000000)">
                <circle id="Oval" fill="#333333" cx="36" cy="36" r="36"></circle>
                <path d="M35.5,50 C47.3741221,50 57,44.9867152 57,33.8095238 C57,22.6323324 47.3741221,16 35.5,16 C23.6258779,16 14,22.6323324 14,33.8095238 C14,44.9867152 23.6258779,50 35.5,50 Z" id="Oval-2" fill="#FFFFFF"></path>
                <path d="M52.830127,14.830127 C54.330127,14.830127 57.830127,24.830127 57.830127,24.830127 L47.830127,24.830127 C47.830127,24.830127 51.330127,14.830127 52.830127,14.830127 Z" id="Triangle-Copy-2" fill="#FFFFFF" transform="translate(52.830127, 19.830127) scale(-1, 1) rotate(-30.000000) translate(-52.830127, -19.830127) "></path>
                <path d="M18.830127,15.080127 C20.330127,15.080127 23.830127,25.080127 23.830127,25.080127 L13.830127,25.080127 C13.830127,25.080127 17.330127,15.080127 18.830127,15.080127 Z" id="Triangle-Copy-3" fill="#FFFFFF" transform="translate(18.830127, 20.080127) rotate(-30.000000) translate(-18.830127, -20.080127) "></path>
                <ellipse id="Oval-3" fill="#FFFFFF" cx="35.5" cy="55.75" rx="7.5" ry="7.5"></ellipse>
                <path d="M28,56.25 L43,56.25 C43,56.25 43,69.3056632 43,71.3145142 C39.6876091,71.9957886 37.913147,71.9957886 35.5,71.9957886 C33.086853,71.9957886 29.9579126,71.6291686 28,71.1174927 L28,56.25 Z" id="Rectangle" fill="#FFFFFF"></path>
                <path d="M17.9060018,51.3438608 C20.4024906,52.8574264 19.6359129,56.7496197 23.2467448,56.7496197 C26.8575767,56.7496197 28.6469382,55.5640144 28.6469382,55.5640144 L28.6469382,59.1748462 C28.6469382,59.1748462 22.5149593,60.1744291 20.107738,59.1748462 C17.7907005,58.2127116 18.2782611,56.5585635 17.3722364,54.8368861 C16.4084664,53.0054781 13,51.3513771 13,50.7495718 C13,50.1477665 15.4095129,49.8302952 17.9060018,51.3438608 Z" id="Rectangle-2" fill="#FFFFFF"></path>
            </g>
        </g>
    </g>
</svg>