<?xml version="1.0" encoding="UTF-8" standalone="no"?>
<svg viewBox="0 0 174 200" version="1.1" xmlns="http://www.w3.org/2000/svg" xmlns:xlink="http://www.w3.org/1999/xlink">
    <!-- Generator: Sketch 39.1 (31720) - http://www.bohemiancoding.com/sketch -->
    <title>mobile-skill</title>
    <desc>Created with Sketch.</desc>
    <defs></defs>
    <g id="Page-1" stroke="none" stroke-width="1" fill="none" fill-rule="evenodd">
        <g id="Artboard" transform="translate(-52.000000, -25.000000)">
            <g id="mobile-skill" transform="translate(54.000000, 27.000000)">
                <polygon id="skillHexagon" stroke="#333333" stroke-width="3" fill="#FFFFFF" points="85.033321 0 169.903811 49 169.903811 147 85.033321 196 0.162831426 147 0.162831426 49"></polygon>
                <g id="phone" transform="translate(55.000000, 38.000000)">
                    <rect id="frame" stroke="#333333" fill="#FFFFFF" x="0" y="0" width="60" height="120" rx="3"></rect>
                    <circle id="button" fill="#D8D8D8" cx="30" cy="112" r="5"></circle>
                    <rect id="screen" fill="#333333" x="2" y="14" width="56" height="90"></rect>
                    <path d="M35,7.9430981 L35,8 L25,8 L25,7.9430981 C24.4174038,7.80581929 24,7.43540628 24,7 C24,6.56459372 24.4174038,6.19418071 25,6.0569019 L25,6 L35,6 L35,6.0569019 C35.5825962,6.19418071 36,6.56459372 36,7 C36,7.43540628 35.5825962,7.80581929 35,7.9430981 Z" id="speaker" fill="#333333"></path>
                </g>
            </g>
        </g>
    </g>
</svg>