<?xml version="1.0" encoding="UTF-8" standalone="no"?>
<svg width="54px" height="62px" viewBox="0 0 54 62" version="1.1" xmlns="http://www.w3.org/2000/svg" xmlns:xlink="http://www.w3.org/1999/xlink">
    <!-- Generator: Sketch 40 (33762) - http://www.bohemiancoding.com/sketch -->
    <!-- Author: Kavin Subramanyam -->
    <title>mobile-tag</title>
    <desc>Created with Sketch.</desc>
    <defs>
        <rect id="path-1" x="0" y="0" width="20" height="40" rx="3"></rect>
        <mask id="mask-2" maskContentUnits="userSpaceOnUse" maskUnits="objectBoundingBox" x="0" y="0" width="20" height="40" fill="white">
            <use xlink:href="#path-1"></use>
        </mask>
    </defs>
    <g id="Page-1" stroke="none" stroke-width="1" fill="none" fill-rule="evenodd">
        <g id="Artboard" transform="translate(-20.000000, -126.000000)">
            <g id="mobile-tag" transform="translate(17.000000, 127.000000)">
                <polygon id="Polygon" stroke="#000000" fill="#FFFFFF" points="30 0 55.9807621 15 55.9807621 45 30 60 4.01923789 45 4.01923789 15"></polygon>
                <g id="phone" transform="translate(20.000000, 10.000000)">
                    <use id="frame" stroke="#000000" mask="url(#mask-2)" stroke-width="2" fill="#FFFFFF" xlink:href="#path-1"></use>
                    <ellipse id="button" fill="#D8D8D8" cx="10" cy="37.3333333" rx="1.66666667" ry="1.66666667"></ellipse>
                    <rect id="screen" fill="#333333" x="0.666666667" y="4.66666667" width="18.6666667" height="30"></rect>
                    <path d="M11.6666667,2.64769937 L11.6666667,2.66666667 L8.33333333,2.66666667 L8.33333333,2.64769937 C8.1391346,2.60193976 8,2.47846876 8,2.33333333 C8,2.18819791 8.1391346,2.0647269 8.33333333,2.0189673 L8.33333333,2 L11.6666667,2 L11.6666667,2.0189673 C11.8608654,2.0647269 12,2.18819791 12,2.33333333 C12,2.47846876 11.8608654,2.60193976 11.6666667,2.64769937 Z" id="speaker" fill="#333333"></path>
                </g>
            </g>
        </g>
    </g>
</svg>