<?xml version="1.0" encoding="UTF-8" standalone="no"?>
<svg width="54px" height="62px" viewBox="0 0 54 62" version="1.1" xmlns="http://www.w3.org/2000/svg" xmlns:xlink="http://www.w3.org/1999/xlink">
    <!-- Generator: Sketch 40 (33762) - http://www.bohemiancoding.com/sketch -->
    <!-- Author: Kavin Subramanyam -->
    <title>python-tag</title>
    <desc>Created with Sketch.</desc>
    <defs></defs>
    <g id="Page-1" stroke="none" stroke-width="1" fill="none" fill-rule="evenodd">
        <g id="Artboard" transform="translate(-420.000000, -127.000000)">
            <g id="python-tag" transform="translate(417.000000, 128.000000)">
                <polygon id="Polygon" stroke="#000000" fill="#FFFFFF" points="30 0 55.9807621 15 55.9807621 45 30 60 4.01923789 45 4.01923789 15"></polygon>
                <g id="python" transform="translate(12.000000, 11.000000)">
                    <g id="blue-snake">
                        <path d="M3.28876067,11.3736307 L9.80858446,11.3736307 L9.80858446,27.7453121 L3.28876067,27.7453121 C3.28395499,27.7452859 3.27914685,27.7453121 3.27433628,27.7453121 C1.47393666,27.7453121 0.0144243889,24.0803864 0.0144243889,19.5594714 C0.0144243889,15.0385564 1.47393666,11.3736307 3.27433628,11.3736307 C3.27914685,11.3736307 3.28395499,11.3736568 3.28876067,11.3737091 Z M26.1946903,3.25991189 L26.1946903,9.77973568 L9.82300885,9.77973568 L9.82300885,3.25991189 C9.82300885,1.45951227 13.4879346,0 18.0088496,0 C22.5297645,0 26.1946903,1.45951227 26.1946903,3.25991189 Z M18.0088496,9.77973568 L26.1946903,9.77973568 L26.1946903,11.4096916 L18.0088496,11.4096916 L18.0088496,9.77973568 Z M9.82300885,11.4096916 L26.1946903,11.4096916 C26.1946903,11.4096916 26.1946903,16.6255507 22.920354,17.9295154 L13.9159292,17.9295154 C10.6415929,19.2334802 9.82300885,23.6343612 9.82300885,23.6343612 L9.82300885,11.4096916 Z" id="Combined-Shape" fill="#5369A8"></path>
                        <ellipse id="Oval-5" fill="#FFFFFF" cx="13.9159292" cy="4.56387665" rx="1.63716814" ry="1.62995595"></ellipse>
                    </g>
                    <g id="gold-snake" transform="translate(23.500000, 23.000000) scale(-1, -1) translate(-23.500000, -23.000000) translate(10.000000, 9.000000)">
                        <path d="M3.28876067,11.3736307 L9.80858446,11.3736307 L9.80858446,27.7453121 L3.28876067,27.7453121 C3.28395499,27.7452859 3.27914685,27.7453121 3.27433628,27.7453121 C1.47393666,27.7453121 0.0144243889,24.0803864 0.0144243889,19.5594714 C0.0144243889,15.0385564 1.47393666,11.3736307 3.27433628,11.3736307 C3.27914685,11.3736307 3.28395499,11.3736568 3.28876067,11.3737091 Z M26.1946903,3.25991189 L26.1946903,9.77973568 L9.82300885,9.77973568 L9.82300885,3.25991189 C9.82300885,1.45951227 13.4879346,-3.01980663e-14 18.0088496,-3.01980663e-14 C22.5297645,-3.01980663e-14 26.1946903,1.45951227 26.1946903,3.25991189 Z M18.0088496,9.77973568 L26.1946903,9.77973568 L26.1946903,11.4096916 L18.0088496,11.4096916 L18.0088496,9.77973568 Z M9.82300885,11.4096916 L26.1946903,11.4096916 C26.1946903,11.4096916 26.1946903,16.6255507 22.920354,17.9295154 L13.9159292,17.9295154 C10.6415929,19.2334802 9.82300885,23.6343612 9.82300885,23.6343612 L9.82300885,11.4096916 Z" id="Combined-Shape" fill="#F8D56C"></path>
                        <ellipse id="Oval-5" fill="#FFFFFF" cx="13.9159292" cy="4.56387665" rx="1.63716814" ry="1.62995595"></ellipse>
                    </g>
                </g>
            </g>
        </g>
    </g>
</svg>