<?xml version="1.0" encoding="UTF-8" standalone="no"?>
<svg width="54px" height="62px" viewBox="0 0 54 62" version="1.1" xmlns="http://www.w3.org/2000/svg" xmlns:xlink="http://www.w3.org/1999/xlink">
    <!-- Generator: Sketch 40 (33762) - http://www.bohemiancoding.com/sketch -->
    <!-- Author: Kavin Subramanyam -->
    <title>swift-tag</title>
    <desc>Created with Sketch.</desc>
    <defs></defs>
    <g id="Page-1" stroke="none" stroke-width="1" fill="none" fill-rule="evenodd">
        <g id="Artboard" transform="translate(-520.000000, -128.000000)">
            <g id="swift-tag" transform="translate(517.000000, 129.000000)">
                <polygon id="Polygon" stroke="#000000" fill="#FFFFFF" points="30 0 55.9807621 15 55.9807621 45 30 60 4.01923789 45 4.01923789 15"></polygon>
                <path d="M44.2615814,32.41507 C42.2277469,37.7901545 36.1979793,41.6875286 29.0758751,41.6875286 C27.8442122,41.6875286 26.6452175,41.5709714 25.4939079,41.3503713 C31.0683779,40.2822581 35.5249386,36.7750117 37.1589952,32.2491279 C34.3444778,32.0843312 29.5672609,31.8164132 24.8305806,31.6049542 C17.4505734,31.2754896 9.97216253,31.0742955 9.97204996,31.0742924 L9.97204996,31.0742924 C9.97204996,31.0742924 14.8196828,30.7336692 19.6673155,30.1277151 C24.5149483,29.521761 31.7291841,28.4209834 31.7291841,28.4209834 C31.7291841,28.4209834 24.3866941,28.2352425 19.6975131,27.5188399 C15.0083321,26.8024372 9.97204996,25.7676743 9.97204996,25.7676743 C9.97204996,25.7676743 17.5172748,26.1677414 24.8305806,26.2983361 C29.8086319,26.3872299 34.8941385,26.3551065 37.6343291,26.3255277 C36.6158696,20.976809 31.7614796,16.6925125 25.4939079,15.4915955 L25.4939079,15.4915955 C26.6452175,15.2709953 27.8442122,15.1544381 29.0758751,15.1544381 C37.2716599,15.1544381 44.0209364,20.3154701 44.8990137,26.9502915 C47.192978,27.7358545 48.6670388,28.8097334 49.6993227,33.1969397 C49.1566322,31.5688682 46.1719779,30.4291896 44.2615814,32.41507 Z" id="swift" fill="#F8946C" transform="translate(29.835686, 28.420983) rotate(30.000000) translate(-29.835686, -28.420983) "></path>
            </g>
        </g>
    </g>
</svg>