<?xml version="1.0" encoding="UTF-8" standalone="no"?>
<svg width="72px" height="72px" viewBox="0 0 72 72" version="1.1" xmlns="http://www.w3.org/2000/svg" xmlns:xlink="http://www.w3.org/1999/xlink">
    <!-- Generator: Sketch 40 (33762) - http://www.bohemiancoding.com/sketch -->
    <!-- Credit to Ronald Poi for the twitter logo. https://dribbble.com/ronaldpoi -->
    <title>twitter</title>
    <desc>Created with Sketch.</desc>
    <defs></defs>
    <g id="Page-1" stroke="none" stroke-width="1" fill="none" fill-rule="evenodd">
        <g id="Artboard" transform="translate(-35.000000, -388.000000)">
            <g id="twitter" transform="translate(35.000000, 388.000000)">
                <circle id="Oval" fill="#333333" cx="36" cy="36" r="36"></circle>
                <path d="M19.7827157,39.6879629 C20.2743077,39.7768582 20.7807389,39.8232809 21.2980469,39.8232809 C22.2088264,39.8232809 23.0858907,39.6793816 23.9076089,39.4131458 C19.8794599,38.7787362 16.799442,35.3019964 16.799442,31.1081357 C16.799442,31.0430922 16.8001828,30.9782212 16.8016566,30.9135305 C17.9943709,31.5886834 19.3683786,31.9823986 20.8328071,32.0040885 C18.4134743,30.525932 16.799442,27.8657852 16.799442,24.8298431 C16.799442,23.2535857 17.2345324,21.7786304 17.991524,20.5178115 C22.2808581,25.6318201 28.5737071,29.0184547 35.6670589,29.4784826 C35.537112,28.8837789 35.4686524,28.2661853 35.4686524,27.6326523 C35.4686524,22.8649699 39.3457831,19 44.1284669,19 C46.6271261,19 48.8786218,20.0549136 50.4592198,21.7423358 C52.4204174,21.4317679 54.2431937,20.7069539 55.8344862,19.6606644 C55.2474825,21.6584451 53.9115956,23.3372898 52.1503563,24.3746838 C53.8743661,24.2148554 55.503191,23.7480727 57,23.0474303 C55.9277168,24.7967986 54.4873413,26.2975183 52.7862236,27.4425758 C52.7875931,27.5057697 52.7882813,27.5691309 52.7882813,27.6326523 C52.7882813,27.8010934 52.7846386,28.4540473 52.7846386,28.61556 C52.7846386,42.082715 41.833003,53 28.3234744,53 C23.4091606,53 18.8333226,51.5553587 15,49.0688482 C15.681346,49.1476637 16.3744077,49.1881795 17.0769621,49.1881795 C21.1464607,49.1881795 24.8974562,47.8287833 27.8979145,45.5406696 C24.0563188,45.5410117 20.8676659,43.0823758 19.7827157,39.6879629 Z" id="final-shape" fill="#FFFFFF"></path>
            </g>
        </g>
    </g>
</svg>